<?xml version="1.0" encoding="utf-8" standalone="no"?>
<!DOCTYPE svg PUBLIC "-//W3C//DTD SVG 1.1//EN"
  "http://www.w3.org/Graphics/SVG/1.1/DTD/svg11.dtd">
<svg xmlns:xlink="http://www.w3.org/1999/xlink" width="146.652014pt" height="144.479998pt" viewBox="0 0 146.652014 144.479998" xmlns="http://www.w3.org/2000/svg" version="1.1">
 <metadata>
  <rdf:RDF xmlns:dc="http://purl.org/dc/elements/1.1/" xmlns:cc="http://creativecommons.org/ns#" xmlns:rdf="http://www.w3.org/1999/02/22-rdf-syntax-ns#">
   <cc:Work>
    <dc:type rdf:resource="http://purl.org/dc/dcmitype/StillImage"/>
    <dc:date>2023-12-01T14:14:50.423082</dc:date>
    <dc:format>image/svg+xml</dc:format>
    <dc:creator>
     <cc:Agent>
      <dc:title>Matplotlib v3.8.2, https://matplotlib.org/</dc:title>
     </cc:Agent>
    </dc:creator>
   </cc:Work>
  </rdf:RDF>
 </metadata>
 <defs>
  <style type="text/css">*{stroke-linejoin: round; stroke-linecap: butt}</style>
 </defs>
 <g id="figure_1">
  <g id="patch_1">
   <path d="M 0 144.479998 
L 146.652014 144.479998 
L 146.652014 0 
L 0 0 
z
" style="fill: #ffffff"/>
  </g>
  <g id="axes_1">
   <g id="line2d_1">
    <path d="M 75.995383 54.420799 
L 126.984783 54.420799 
" clip-path="url(#p13db7f1c6c)" style="fill: none; stroke: #000000; stroke-width: 2; stroke-linecap: square"/>
   </g>
   <g id="line2d_2">
    <path d="M 75.995383 100.774799 
L 126.984783 100.774799 
" clip-path="url(#p13db7f1c6c)" style="fill: none; stroke: #000000; stroke-width: 2; stroke-linecap: square"/>
   </g>
   <g id="patch_2">
    <path d="M 71.359983 31.2438 
L -1087.490001 31.2438 
L -1087.490001 170.305798 
L 71.359983 170.305798 
z
" clip-path="url(#p13db7f1c6c)" style="fill: #ffffff; stroke: #ffffff; stroke-width: 1.5; stroke-linejoin: miter"/>
   </g>
   <g id="line2d_3">
    <path d="M 101.026543 100.774799 
L 101.026543 54.420799 
" clip-path="url(#p13db7f1c6c)" style="fill: none; stroke: #6fa4ff; stroke-width: 2; stroke-linecap: square"/>
   </g>
   <g id="patch_3">
    <path d="M 101.026543 58.940314 
C 102.225132 58.940314 103.374792 58.46411 104.222323 57.616579 
C 105.069853 56.769048 105.546058 55.619389 105.546058 54.420799 
C 105.546058 53.22221 105.069853 52.07255 104.222323 51.22502 
C 103.374792 50.377489 102.225132 49.901284 101.026543 49.901284 
C 99.827954 49.901284 98.678294 50.377489 97.830763 51.22502 
C 96.983233 52.07255 96.507028 53.22221 96.507028 54.420799 
C 96.507028 55.619389 96.983233 56.769048 97.830763 57.616579 
C 98.678294 58.46411 99.827954 58.940314 101.026543 58.940314 
z
" clip-path="url(#p13db7f1c6c)" style="fill: #6fa4ff; stroke: #6fa4ff; stroke-width: 1.5; stroke-linejoin: miter"/>
   </g>
   <g id="patch_4">
    <path d="M 101.026543 111.320334 
C 103.823252 111.320334 106.505791 110.209189 108.483362 108.231618 
C 110.460934 106.254046 111.572078 103.571507 111.572078 100.774799 
C 111.572078 97.97809 110.460934 95.295551 108.483362 93.317979 
C 106.505791 91.340408 103.823252 90.229264 101.026543 90.229264 
C 98.229834 90.229264 95.547295 91.340408 93.569724 93.317979 
C 91.592152 95.295551 90.481008 97.97809 90.481008 100.774799 
C 90.481008 103.571507 91.592152 106.254046 93.569724 108.231618 
C 95.547295 110.209189 98.229834 111.320334 101.026543 111.320334 
z
" clip-path="url(#p13db7f1c6c)" style="fill: #6fa4ff; stroke: #6fa4ff; stroke-width: 2; stroke-linejoin: miter"/>
   </g>
   <g id="line2d_4">
    <path d="M 101.026543 106.800819 
L 101.026543 94.748779 
" clip-path="url(#p13db7f1c6c)" style="fill: none; stroke: #ffffff; stroke-width: 2; stroke-linecap: square"/>
   </g>
   <g id="line2d_5">
    <path d="M 95.000523 100.774799 
L 107.052563 100.774799 
" clip-path="url(#p13db7f1c6c)" style="fill: none; stroke: #ffffff; stroke-width: 2; stroke-linecap: square"/>
   </g>
   <g id="text_1">
    <g clip-path="url(#p13db7f1c6c)">
     <!-- ${q}_{0}$ -->
     <g transform="translate(48.687083 58.871776) scale(0.1625 -0.1625)">
      <defs>
       <path id="DejaVuSans-Oblique-71" d="M 2669 525 
Q 2438 222 2123 65 
Q 1809 -91 1428 -91 
Q 897 -91 595 267 
Q 294 625 294 1253 
Q 294 1759 480 2231 
Q 666 2703 1013 3078 
Q 1238 3322 1530 3453 
Q 1822 3584 2144 3584 
Q 2531 3584 2781 3431 
Q 3031 3278 3144 2969 
L 3244 3494 
L 3822 3494 
L 2888 -1319 
L 2309 -1319 
L 2669 525 
z
M 891 1338 
Q 891 875 1084 633 
Q 1278 391 1644 391 
Q 2188 391 2572 911 
Q 2956 1431 2956 2175 
Q 2956 2625 2757 2864 
Q 2559 3103 2188 3103 
Q 1916 3103 1684 2976 
Q 1453 2850 1281 2606 
Q 1100 2350 995 2006 
Q 891 1663 891 1338 
z
" transform="scale(0.015625)"/>
       <path id="DejaVuSans-30" d="M 2034 4250 
Q 1547 4250 1301 3770 
Q 1056 3291 1056 2328 
Q 1056 1369 1301 889 
Q 1547 409 2034 409 
Q 2525 409 2770 889 
Q 3016 1369 3016 2328 
Q 3016 3291 2770 3770 
Q 2525 4250 2034 4250 
z
M 2034 4750 
Q 2819 4750 3233 4129 
Q 3647 3509 3647 2328 
Q 3647 1150 3233 529 
Q 2819 -91 2034 -91 
Q 1250 -91 836 529 
Q 422 1150 422 2328 
Q 422 3509 836 4129 
Q 1250 4750 2034 4750 
z
" transform="scale(0.015625)"/>
      </defs>
      <use xlink:href="#DejaVuSans-Oblique-71"/>
      <use xlink:href="#DejaVuSans-30" transform="translate(63.476562 -16.40625) scale(0.7)"/>
     </g>
    </g>
   </g>
   <g id="text_2">
    <g clip-path="url(#p13db7f1c6c)">
     <!-- ${q}_{1}$ -->
     <g transform="translate(48.687083 105.225775) scale(0.1625 -0.1625)">
      <defs>
       <path id="DejaVuSans-31" d="M 794 531 
L 1825 531 
L 1825 4091 
L 703 3866 
L 703 4441 
L 1819 4666 
L 2450 4666 
L 2450 531 
L 3481 531 
L 3481 0 
L 794 0 
L 794 531 
z
" transform="scale(0.015625)"/>
      </defs>
      <use xlink:href="#DejaVuSans-Oblique-71"/>
      <use xlink:href="#DejaVuSans-31" transform="translate(63.476562 -16.40625) scale(0.7)"/>
     </g>
    </g>
   </g>
  </g>
 </g>
 <defs>
  <clipPath id="p13db7f1c6c">
   <rect x="18.698132" y="17.3376" width="112.922051" height="111.249599"/>
  </clipPath>
 </defs>
</svg>
